<?xml version="1.0"?>
<svg width="454" height="110" xmlns="http://www.w3.org/2000/svg" xmlns:svg="http://www.w3.org/2000/svg">
 <g class="layer">
  <title>Layer 1</title>
  <g id="svg_1">
   <path id="svg_2" d="m31.847999,17.276005l-8.019,37.501l36.06,0l-1.441,6.854l-36.082,0l-6.304,30.003l60.004,0l-1.966,9.21l-69.1,0l19.605,-92.752l69.215,0l-1.965,9.208l-60.007,0l0,-0.024z" fill="#FFFFFF"/>
   <path id="svg_3" d="m84.725999,76.553005c0.71,-3.335 1.987,-6.466 3.885,-9.37c1.874,-2.901 4.113,-5.437 6.718,-7.586c2.581,-2.146 5.462,-3.86 8.614,-5.073c3.153,-1.233 6.399,-1.85 9.732,-1.85c3.065,0 5.783,0.457 8.158,1.37c2.378,0.915 4.433,2.398 6.194,4.413l1.326,-5.783l8.019,0l-10.122,47.896l-8.019,0l1.186,-5.783c-2.537,1.762 -5.255,3.157 -8.156,4.205c-2.903,1.056 -5.783,1.578 -8.686,1.578c-3.335,0 -6.305,-0.617 -8.958,-1.852c-2.627,-1.235 -4.797,-2.948 -6.512,-5.141c-1.713,-2.195 -2.877,-4.753 -3.472,-7.653c-0.639,-2.905 -0.594,-6.014 0.093,-9.371zm8.045,0.066c-0.526,2.539 -0.618,4.913 -0.252,7.105c0.339,2.199 1.074,4.113 2.17,5.783c1.098,1.669 2.492,2.995 4.205,3.956c1.713,0.957 3.657,1.439 5.849,1.439c1.922,0 3.885,-0.438 5.849,-1.326c1.967,-0.869 3.817,-2.057 5.533,-3.544c1.712,-1.482 3.244,-3.247 4.616,-5.253c1.348,-2.013 2.375,-4.161 3.085,-6.444l0.8,-3.544c0.181,-2.192 0,-4.271 -0.528,-6.258c-0.522,-1.966 -1.326,-3.727 -2.376,-5.261c-1.05,-1.527 -2.375,-2.736 -3.953,-3.61c-1.576,-0.866 -3.335,-1.324 -5.255,-1.324c-2.192,0 -4.342,0.48 -6.446,1.441c-2.101,0.958 -4.041,2.259 -5.847,3.887c-1.805,1.622 -3.359,3.565 -4.664,5.779c-1.347,2.241 -2.262,4.642 -2.786,7.174z" fill="#FFFFFF"/>
   <path id="svg_4" d="m151.840999,100.569005c-3.155,0 -6.037,-0.412 -8.618,-1.26c-2.578,-0.818 -4.775,-1.962 -6.58,-3.424c-1.805,-1.442 -3.105,-3.108 -3.953,-5.005c-0.82,-1.874 -1.028,-3.931 -0.594,-6.126l8.295,0c-0.708,2.995 0.137,5.37 2.492,7.175c2.375,1.805 5.734,2.696 10.122,2.696c4.389,0 8.11,-0.774 11.173,-2.375c3.062,-1.578 4.868,-3.683 5.392,-6.31c0.528,-2.443 -0.387,-4.431 -2.764,-5.914s-5.781,-2.287 -10.262,-2.382c-2.992,0 -5.71,-0.314 -8.154,-0.979c-2.47,-0.665 -4.548,-1.549 -6.262,-2.696c-1.715,-1.14 -2.972,-2.466 -3.749,-4.022c-0.8,-1.53 -0.96,-3.218 -0.528,-5.074c0.345,-1.757 1.259,-3.402 2.7,-4.934c1.438,-1.531 3.268,-2.9 5.462,-4.068c2.192,-1.186 4.66,-2.123 7.425,-2.832c2.764,-0.71 5.645,-1.054 8.614,-1.054c2.994,0 5.712,0.365 8.158,1.124c2.446,0.752 4.548,1.757 6.238,3.014c1.713,1.281 2.97,2.766 3.747,4.481c0.802,1.713 0.961,3.538 0.528,5.46l-8.16,0c0.526,-2.535 -0.276,-4.547 -2.444,-5.988c-2.146,-1.437 -5.279,-2.17 -9.414,-2.17c-4.136,0 -7.473,0.616 -10.078,1.851c-2.583,1.235 -4.092,2.948 -4.547,5.142c-0.435,2.196 0.364,3.884 2.448,5.075c2.053,1.184 5.16,1.782 9.274,1.782c3.246,0 6.19,0.365 8.819,1.118c2.628,0.753 4.846,1.783 6.652,3.083c1.805,1.33 3.083,2.835 3.883,4.545c0.776,1.717 1.005,3.544 0.663,5.466c-0.435,2.009 -1.417,3.931 -2.972,5.735c-1.529,1.805 -3.494,3.361 -5.849,4.662c-2.378,1.322 -5.027,2.353 -7.951,3.083c-2.877,0.756 -5.962,1.121 -9.206,1.121z" fill="#FFFFFF"/>
   <path id="svg_5" d="m208.667999,52.012005c3.335,0 6.332,0.641 9.004,1.895c2.676,1.258 4.914,3.018 6.72,5.233c1.803,2.241 3.016,4.843 3.677,7.86c0.666,3.018 0.594,6.218 -0.207,9.619c-0.183,0.964 -0.363,1.852 -0.593,2.678c-0.227,0.818 -0.546,1.757 -0.981,2.809l-39.876,0c0.274,3.749 1.691,6.88 4.274,9.437c2.579,2.562 5.895,3.84 9.939,3.84l-1.189,5.666c-3.611,0 -6.83,-0.657 -9.665,-1.965c-2.855,-1.301 -5.209,-3.084 -7.105,-5.301c-1.898,-2.24 -3.201,-4.819 -3.953,-7.749c-0.754,-2.923 -0.778,-6.05 -0.067,-9.389c0.798,-3.405 2.145,-6.627 4.088,-9.645c1.92,-3.018 4.227,-5.643 6.901,-7.882c2.674,-2.24 5.668,-3.977 8.936,-5.255c3.335,-1.21 6.672,-1.851 10.097,-1.851zm11.448,21.454c0.093,-2.192 -0.157,-4.227 -0.73,-6.123c-0.572,-1.87 -1.394,-3.544 -2.49,-5.005c-1.096,-1.438 -2.444,-2.581 -4.092,-3.427c-1.62,-0.822 -3.401,-1.257 -5.325,-1.257c-2.101,0 -4.158,0.387 -6.19,1.189c-2.011,0.798 -3.907,1.895 -5.667,3.291c-1.759,1.395 -3.313,3.061 -4.662,5.004c-1.372,1.921 -2.446,4.044 -3.22,6.306l32.375,0l0,0.022l0.001,0z" fill="#FFFFFF"/>
   <path id="svg_6" d="m259.329999,52.149005c3.336,0 6.328,0.639 9.002,1.894c2.674,1.282 4.866,2.972 6.583,5.142c1.71,2.15 2.879,4.684 3.496,7.631c0.618,2.948 0.57,6.127 -0.139,9.554c-0.709,3.431 -2.009,6.602 -3.956,9.528c-1.915,2.948 -4.201,5.509 -6.828,7.701c-2.627,2.195 -5.553,3.931 -8.75,5.188c-3.2,1.278 -6.474,1.918 -9.806,1.918c-6.306,0 -11.219,-1.918 -14.737,-5.779l-1.329,5.779l-8.018,0l19.335,-91.176l8.154,0l-10.397,48.56c2.535,-1.761 5.326,-3.176 8.366,-4.276c3.037,-1.116 6.029,-1.664 9.024,-1.664zm-9.206,42.89c2.192,0 4.362,-0.479 6.51,-1.439c2.148,-0.961 4.114,-2.31 5.919,-4.022c1.805,-1.71 3.383,-3.697 4.73,-5.984c1.349,-2.287 2.306,-4.69 2.832,-7.248c0.525,-2.535 0.617,-4.954 0.273,-7.241s-1.074,-4.252 -2.17,-5.918c-1.1,-1.668 -2.518,-2.972 -4.205,-3.955c-1.713,-0.959 -3.657,-1.439 -5.853,-1.439c-2.009,0 -4.04,0.46 -6.05,1.394c-2.013,0.916 -3.909,2.126 -5.648,3.612c-1.757,1.484 -3.31,3.268 -4.661,5.324c-1.37,2.057 -2.44,4.183 -3.223,6.375l-0.796,3.675c-0.277,2.287 -0.139,4.461 0.387,6.518c0.526,2.054 1.326,3.862 2.448,5.393c1.096,1.53 2.44,2.74 4.088,3.609c1.575,0.91 3.38,1.346 5.419,1.346z" fill="#FFFFFF"/>
   <path id="svg_7" d="m298.127999,100.844005c-3.427,0 -6.488,-0.64 -9.206,-1.922c-2.718,-1.278 -4.961,-3.018 -6.719,-5.253c-1.761,-2.243 -2.97,-4.87 -3.609,-7.884c-0.661,-3.018 -0.639,-6.262 0.069,-9.667l5.258,-24.749l8.289,0l-5.254,24.749c-0.525,2.63 -0.617,5.122 -0.277,7.424c0.344,2.338 1.074,4.344 2.174,6.057c1.1,1.717 2.539,3.062 4.344,4.092c1.779,1.005 3.836,1.509 6.123,1.509c2.101,0 4.223,-0.435 6.375,-1.326c2.145,-0.869 4.113,-2.104 5.918,-3.675c1.805,-1.578 3.38,-3.435 4.731,-5.535c1.348,-2.101 2.353,-4.34 2.97,-6.718l5.667,-26.576l8.548,0l-10.514,49.588l-8.549,0l1.33,-6.192c-2.536,1.761 -5.349,3.2 -8.41,4.34c-3.113,1.167 -6.174,1.738 -9.258,1.738z" fill="#FFFFFF"/>
   <path id="svg_8" d="m338.920999,94.926005l31.306,0l-1.188,5.392l-42.503,0l0.913,-4.596l39.507,-38.707l-31.191,0l1.19,-5.391l42.503,0l-1.326,4.614l-39.211,38.688z" fill="#FFFFFF"/>
   <path id="svg_9" d="m448.602999,95.703005l1.326,4.593l-42.502,0l-1.191,-5.393l31.192,0l-39.463,-38.688l-0.913,-4.616l42.502,0l1.188,5.394l-31.306,0l39.167,38.71z" fill="#FFFFFF"/>
   <path id="svg_10" d="m384.615999,61.013005l-30.41,29.98l30.41,0l0,2.396c-2.944,1.33 -5.023,4.253 -5.023,7.68c0,4.665 3.84,8.432 8.571,8.432c4.73,0 8.566,-3.767 8.566,-8.432c0,-3.405 -2.057,-6.35 -5.026,-7.68l0,-2.396l30.438,0l-30.438,-30.05" fill="#D63B41"/>
   <path id="svg_11" d="m391.611999,92.595005l0,-2.396l29.753,0l-29.753,-29.848l0,-23.354c-0.069,-13.894 -8.819,-28.997 -32.448,-26.094c-30.206,3.703 -33.476,37.61 -33.476,37.61l8.136,0c0,0 4.362,-31.74 31.145,-31.488c19.859,0.207 19.721,19.949 19.721,19.949l0,23.468l-29.752,29.755l29.752,0l0,2.396c-2.9,1.322 -4.91,4.23 -4.91,7.609c0,4.637 3.745,8.385 8.385,8.385s8.384,-3.748 8.384,-8.385c-0.023,-3.377 -2.033,-6.307 -4.937,-7.607z" fill="#D63B41"/>
  </g>
 </g>
</svg>